# xmcd
# Track frame offsets:
# 150
# 14108
# 29183
# 41093
# 53442
# 67024
# 78878
# 93361
# 106664
# 118324
# 128534
# 139253
# 153031
# 169064
# 176139
# 186098
# 198728
#
# Disc length: 2789 seconds
# Revision: 0
# Processed by: cddbd v1.5.1PL0 Copyright (c) Steve Scherf et al.
# Submitted via: VisiTrax 2.9.10.228 - For more info visit www.synapsa.com
#
DISCID=ec0ae311
DTITLE=Various Artist - Classi Country Hits - Disc 5
DYEAR=1980
DGENRE=Country
TTITLE0=Johnny Cash and June Carter - If I Was A Carpenter
TTITLE1=Waylon Jennings - Lukenbach Texas
TTITLE2=Tennessee Ernie Ford - Sixtennt Tons
TTITLE3=Tammy Wynette - Standby Your Man
TTITLE4=Emmylou Harris - Sweet Dreams
TTITLE5=Bobby Edwards - Your The Reason
TTITLE6=B. J. Thomas - America Is
TTITLE7=Charlie Rich - Behind Closed Doors
TTITLE8=Ray Price - Crazy Arms
TTITLE9=Statler Brothers - Do You Know You Are My Sunshine
TTITLE10=Sonny James - Empty Arms
TTITLE11=Ricky Skaggs - I Wouldn't Change You If I Could
TTITLE12=Oak Ridge Boys - Sail Away
TTITLE13=Ricochet - The Star Spangled Banner
TTITLE14=Barbra Mandrell - Tonight My Babys Comin Home
TTITLE15=Sly And Sal - Wishful Thinking
TTITLE16=Cowboy Copas - Alabam
EXTD=
EXTT0=
EXTT1=
EXTT2=
EXTT3=
EXTT4=
EXTT5=
EXTT6=
EXTT7=
EXTT8=
EXTT9=
EXTT10=
EXTT11=
EXTT12=
EXTT13=
EXTT14=
EXTT15=
EXTT16=1
PLAYORDER=
